<svg xmlns="http://www.w3.org/2000/svg" xmlns:xlink="http://www.w3.org/1999/xlink" xml:space="preserve" version="1.0" style="shape-rendering:geometricPrecision;text-rendering:geometricPrecision;image-rendering:optimizeQuality;" viewBox="0 0 10601 5202.5" x="0px" y="0px" fill-rule="evenodd" clip-rule="evenodd"><g><path class="fil0" d="M10586 2181l0 3 -2 7 -1 1 -2 8 -1 3 -2 6c-20,57 -53,111 -99,157l-10 10 -1665 1665c-161,162 -423,162 -585,0 -161,-161 -161,-423 0,-585l969 -969 -8774 0c-229,0 -414,-185 -414,-413 0,-229 185,-414 414,-414l8774 0 -954 -954c-161,-161 -161,-423 0,-585 161,-161 424,-161 585,0l1650 1650 10 10c46,46 79,100 99,158l2 6 1 2 2 8 1 1 2 8 0 2c10,34 15,70 15,108 0,37 -6,73 -15,107z"/></g><text x="0" y="4177" fill="#000000" font-size="5px" font-weight="bold" font-family="'Helvetica Neue', Helvetica, Arial-Unicode, Arial, Sans-serif">Created by Ioannis Malikoutsakis</text><text x="0" y="4182" fill="#000000" font-size="5px" font-weight="bold" font-family="'Helvetica Neue', Helvetica, Arial-Unicode, Arial, Sans-serif">from the Noun Project</text></svg>